<?xml version="1.0" standalone="no"?>
<!DOCTYPE svg PUBLIC "-//W3C//DTD SVG 20010904//EN"
 "http://www.w3.org/TR/2001/REC-SVG-20010904/DTD/svg10.dtd">
<svg version="1.0" xmlns="http://www.w3.org/2000/svg"
 width="323.000000pt" height="236.000000pt" viewBox="0 0 323.000000 236.000000"
 preserveAspectRatio="xMidYMid meet">

<g transform="translate(0.000000,236.000000) scale(0.100000,-0.100000)"
fill="#000000" stroke="none">
<path d="M1449 2250 c-324 -29 -657 -149 -890 -321 -86 -64 -209 -192 -264
-278 -84 -130 -125 -266 -125 -415 0 -120 18 -201 71 -315 124 -267 400 -483
773 -606 739 -243 1630 -25 1975 483 108 160 147 292 139 473 -10 214 -96 389
-278 563 -319 305 -857 464 -1401 416z m464 -656 l27 -6 0 -409 0 -409 225 0
c201 0 230 2 279 20 92 35 144 107 153 212 9 99 -44 191 -128 220 l-28 10 37
36 c21 20 44 48 53 60 l14 24 52 -51 c115 -113 156 -202 157 -336 0 -84 -2
-95 -36 -165 -140 -287 -552 -470 -1058 -470 -315 0 -615 79 -820 215 -94 62
-196 173 -233 254 -29 60 -31 75 -32 171 0 100 2 108 35 174 32 63 150 206
171 206 5 0 9 -123 9 -290 l0 -290 55 0 55 0 0 331 0 330 83 39 c45 21 92 41
105 45 l22 6 0 -376 0 -376 238 3 239 3 58 30 c83 42 118 100 123 200 3 58 0
80 -16 112 -24 46 -82 100 -117 109 -25 6 -25 7 20 46 97 85 102 202 14 303
l-34 38 125 -7 c69 -3 137 -9 153 -12z m-373 -57 c73 -25 107 -140 59 -201
-39 -50 -65 -56 -229 -56 l-150 0 0 135 0 135 143 -1 c82 0 157 -5 177 -12z
m668 -13 c42 -15 114 -44 160 -65 63 -30 82 -44 82 -60 0 -33 -27 -76 -63 -98
-31 -19 -49 -21 -186 -21 l-151 0 0 135 0 135 41 0 c22 0 75 -12 117 -26z
m-629 -369 c56 -33 76 -68 76 -135 0 -68 -21 -105 -76 -132 -27 -14 -65 -17
-194 -19 l-160 -1 -3 157 -3 157 163 -4 c140 -3 168 -6 197 -23z m826 -1 c46
-24 85 -83 85 -129 0 -49 -40 -118 -80 -137 -29 -15 -63 -18 -197 -18 l-163 0
0 156 0 156 158 -3 c135 -4 163 -7 197 -25z"/>
</g>
</svg>
